<svg width="21" height="16" viewBox="0 0 21 16" fill="none" xmlns="http://www.w3.org/2000/svg">
<path d="M13.8165 0.261719C13.6179 0.617406 13.4409 0.984738 13.2865 1.36172C11.7693 1.12177 10.2237 1.12177 8.7065 1.36172C8.55209 0.984738 8.3751 0.617406 8.1765 0.261719C6.74729 0.50592 5.3579 0.943256 4.0465 1.56172C1.70144 4.94601 0.637936 9.05467 1.0465 13.1517C2.57474 14.3006 4.28996 15.1768 6.1165 15.7417C6.53241 15.1923 6.9036 14.6105 7.2265 14.0017C6.63057 13.782 6.0578 13.504 5.5165 13.1717C5.66496 13.0729 5.8054 12.9626 5.9365 12.8417C7.51496 13.602 9.24447 13.9969 10.9965 13.9969C12.7485 13.9969 14.478 13.602 16.0565 12.8417C16.1965 12.9617 16.3365 13.0717 16.4765 13.1717C15.9323 13.5014 15.36 13.7824 14.7665 14.0117C15.076 14.6343 15.4373 15.2297 15.8465 15.7917C17.6708 15.2287 19.383 14.3523 20.9065 13.2017C21.3249 9.10392 20.2605 4.9919 17.9065 1.61172C16.6098 0.980456 15.2342 0.526389 13.8165 0.261719ZM7.6765 10.8117C7.17608 10.7758 6.70904 10.5474 6.37342 10.1745C6.0378 9.80158 5.85969 9.31314 5.8765 8.81172C5.85716 8.30964 6.03439 7.8198 6.37051 7.44633C6.70664 7.07286 7.17516 6.84519 7.6765 6.81172C8.17784 6.84519 8.64636 7.07286 8.98249 7.44633C9.31861 7.8198 9.49584 8.30964 9.4765 8.81172C9.49584 9.3138 9.31861 9.80364 8.98249 10.1771C8.64636 10.5506 8.17784 10.7782 7.6765 10.8117ZM14.3165 10.8117C13.8161 10.7758 13.349 10.5474 13.0134 10.1745C12.6778 9.80158 12.4997 9.31314 12.5165 8.81172C12.4972 8.30964 12.6744 7.8198 13.0105 7.44633C13.3466 7.07286 13.8152 6.84519 14.3165 6.81172C14.8188 6.84269 15.2888 7.06962 15.6254 7.44367C15.9621 7.81771 16.1384 8.30897 16.1165 8.81172C16.1384 9.31447 15.9621 9.80573 15.6254 10.1798C15.2888 10.5538 14.8188 10.7807 14.3165 10.8117Z" fill="white"/>
</svg>
