<svg width="307" height="307" viewBox="0 0 307 307" fill="none" xmlns="http://www.w3.org/2000/svg">
<rect width="307" height="307" rx="50" fill="black"/>
<path d="M126.318 179.933V163.398L195.686 109.221H217.195L126.318 179.933ZM115.967 203.324V109.221H130.486V203.324H115.967ZM195.955 203.324L154.684 152.374L163.691 140.813L215.313 203.324H195.955Z" fill="#FF1220"/>
<path d="M108.818 179.933V163.398L178.186 109.221H199.695L108.818 179.933ZM98.4669 203.324V109.221H112.986V203.324H98.4669ZM178.455 203.324L137.184 152.374L146.191 140.813L197.813 203.324H178.455Z" fill="#12D4FF"/>
<path d="M116.023 181.673V164.476L188.166 108.133H210.535L116.023 181.673ZM105.258 206V108.133H120.358V206H105.258ZM188.445 206L145.523 153.012L154.891 140.988L208.578 206H188.445Z" fill="white"/>
</svg>
