<svg width="19" height="17" viewBox="0 0 19 17" fill="none" xmlns="http://www.w3.org/2000/svg">
<path fill-rule="evenodd" clip-rule="evenodd" d="M19 2.4082C18.2875 2.76445 17.575 2.8832 16.7437 3.00195C17.575 2.52695 18.1688 1.81445 18.4062 0.864453C17.6938 1.33945 16.8625 1.57695 15.9125 1.81445C15.2 1.10195 14.1313 0.626953 13.0625 0.626953C11.0437 0.626953 9.2625 2.4082 9.2625 4.5457C9.2625 4.90195 9.2625 5.13945 9.38125 5.37695C6.175 5.2582 3.20625 3.71445 1.30625 1.33945C0.95 1.9332 0.83125 2.52695 0.83125 3.3582C0.83125 4.66445 1.54375 5.85195 2.6125 6.56445C2.01875 6.56445 1.425 6.32695 0.83125 6.08945C0.83125 7.98945 2.1375 9.5332 3.91875 9.88945C3.5625 10.0082 3.20625 10.0082 2.85 10.0082C2.6125 10.0082 2.375 10.0082 2.1375 9.88945C2.6125 11.4332 4.0375 12.6207 5.81875 12.6207C4.5125 13.6895 2.85 14.2832 0.95 14.2832C0.59375 14.2832 0.35625 14.2832 0 14.2832C1.78125 15.352 3.8 16.0645 5.9375 16.0645C13.0625 16.0645 16.9813 10.127 16.9813 5.0207C16.9813 4.90195 16.9813 4.66445 16.9813 4.5457C17.8125 3.95195 18.525 3.23945 19 2.4082Z" fill="white"/>
</svg>
