<svg width="260" height="75" viewBox="0 0 260 75" fill="none" xmlns="http://www.w3.org/2000/svg">
<path d="M67.6016 0.0332031H79.5618V74.0317H67.6016V0.0332031Z" fill="#0E0E0E"/>
<path d="M121.159 50.5808C121.159 62.0454 111.799 63.0876 108.679 63.0876C101.399 63.0876 100.359 56.3131 100.359 52.6653V24.0039H88.3984V52.1442C88.3984 58.9187 90.4785 65.1721 94.6386 68.8199C98.2786 72.4677 102.959 74.0311 108.679 74.0311C112.839 74.0311 118.039 72.9888 121.159 69.8621V74.0311H133.119V24.0039H121.159V50.5808Z" fill="#0E0E0E"/>
<path d="M156.527 5.76562H144.567V24.0047H135.727V35.4693H144.567V74.0319H156.527V35.4693H165.367V24.0047H156.527V5.76562Z" fill="#0E0E0E"/>
<path d="M202.806 58.9219C200.206 61.0063 196.566 62.5697 192.926 62.5697C184.606 62.5697 178.886 56.3163 178.886 47.9784C178.886 39.6406 184.606 33.9083 192.926 33.9083C196.566 33.9083 200.206 34.9505 202.806 37.5561L204.366 39.1194L212.686 31.3027L210.606 29.7393C205.926 25.5704 199.686 22.9648 192.926 22.9648C178.366 22.9648 167.445 33.9083 167.445 48.4995C167.445 63.0908 178.366 74.0342 192.926 74.0342C199.686 74.0342 205.926 71.4287 210.606 67.2597L212.686 65.6964L204.366 57.3585L202.806 58.9219Z" fill="#0E0E0E"/>
<path d="M254.799 28.1735C251.159 24.5257 247.519 22.9623 241.799 22.9623C237.639 22.9623 233.479 24.0046 230.359 27.1312V0.0332031H218.398V74.0317H230.359V46.4126C230.359 34.948 238.159 33.9058 241.279 33.9058C248.559 33.9058 248.039 40.6803 248.039 44.3281V73.5106H259.999V44.8492C259.999 38.0747 258.439 31.8213 254.799 28.1735Z" fill="#0E0E0E"/>
<path d="M192.398 56.8339C196.993 56.8339 200.718 53.1009 200.718 48.4961C200.718 43.8912 196.993 40.1582 192.398 40.1582C187.803 40.1582 184.078 43.8912 184.078 48.4961C184.078 53.1009 187.803 56.8339 192.398 56.8339Z" fill="#0E0E0E"/>
<path d="M50.9611 55.7935C46.801 59.9624 40.5609 62.568 33.8007 62.568C20.8004 62.568 11.4402 52.1457 11.4402 38.0755C11.4402 24.0054 20.8004 13.5831 34.3207 13.5831C40.5609 13.5831 46.801 16.1886 51.4811 20.8787L53.0411 22.442L60.8413 14.6253L59.2813 13.0619C52.5211 6.28742 43.6809 2.63961 34.3207 2.63961C14.5603 2.11849 0 17.752 0 38.0755C0 58.3991 14.5603 74.0325 33.8007 74.0325C43.1609 74.0325 52.5211 70.3847 58.7613 63.6102L60.3213 62.0469L52.5211 54.2301L50.9611 55.7935Z" fill="#0E0E0E"/>
</svg>
