<svg width="180" height="60" viewBox="0 0 180 60" fill="none" xmlns="http://www.w3.org/2000/svg">
<path d="M0.379686 58.0332V2.0332H26.8597C33.0464 2.0332 38.4864 3.17987 43.1797 5.4732C47.873 7.76654 51.5264 10.9932 54.1397 15.1532C56.8064 19.3132 58.1397 24.2732 58.1397 30.0332C58.1397 35.7399 56.8064 40.6999 54.1397 44.9132C51.5264 49.0732 47.873 52.2999 43.1797 54.5932C38.4864 56.8865 33.0464 58.0332 26.8597 58.0332H0.379686ZM16.2197 45.3932H26.2197C29.4197 45.3932 32.193 44.8065 34.5397 43.6332C36.9397 42.4065 38.8064 40.6465 40.1397 38.3532C41.473 36.0065 42.1397 33.2332 42.1397 30.0332C42.1397 26.7799 41.473 24.0065 40.1397 21.7132C38.8064 19.4199 36.9397 17.6865 34.5397 16.5132C32.193 15.2865 29.4197 14.6732 26.2197 14.6732H16.2197V45.3932ZM91.1134 59.1532C86.6334 59.1532 82.5001 58.4332 78.7134 56.9932C74.9268 55.5532 71.6201 53.5265 68.7934 50.9132C66.0201 48.2465 63.8601 45.1532 62.3134 41.6332C60.7668 38.1132 59.9934 34.2465 59.9934 30.0332C59.9934 25.8199 60.7668 21.9532 62.3134 18.4332C63.8601 14.9132 66.0201 11.8465 68.7934 9.2332C71.6201 6.56653 74.9268 4.5132 78.7134 3.0732C82.5001 1.6332 86.6334 0.913199 91.1134 0.913199C95.6468 0.913199 99.7801 1.6332 103.513 3.0732C107.3 4.5132 110.58 6.56653 113.353 9.2332C116.127 11.8465 118.287 14.9132 119.833 18.4332C121.433 21.9532 122.233 25.8199 122.233 30.0332C122.233 34.2465 121.433 38.1399 119.833 41.7132C118.287 45.2332 116.127 48.2999 113.353 50.9132C110.58 53.5265 107.3 55.5532 103.513 56.9932C99.7801 58.4332 95.6468 59.1532 91.1134 59.1532ZM91.1134 46.0332C93.2468 46.0332 95.2201 45.6599 97.0334 44.9132C98.9001 44.1665 100.5 43.0999 101.833 41.7132C103.22 40.2732 104.287 38.5665 105.033 36.5932C105.833 34.6199 106.233 32.4332 106.233 30.0332C106.233 27.5799 105.833 25.3932 105.033 23.4732C104.287 21.4999 103.22 19.8199 101.833 18.4332C100.5 16.9932 98.9001 15.8999 97.0334 15.1532C95.2201 14.4065 93.2468 14.0332 91.1134 14.0332C88.9801 14.0332 86.9801 14.4065 85.1134 15.1532C83.3001 15.8999 81.7001 16.9932 80.3134 18.4332C78.9801 19.8199 77.9134 21.4999 77.1134 23.4732C76.3668 25.3932 75.9934 27.5799 75.9934 30.0332C75.9934 32.4332 76.3668 34.6199 77.1134 36.5932C77.9134 38.5665 78.9801 40.2732 80.3134 41.7132C81.7001 43.0999 83.3001 44.1665 85.1134 44.9132C86.9801 45.6599 88.9801 46.0332 91.1134 46.0332ZM152.77 59.1532C144.503 59.1532 138.05 56.8865 133.41 52.3532C128.77 47.8199 126.45 41.3932 126.45 33.0732V2.0332H142.29V32.5932C142.29 37.3932 143.223 40.8332 145.09 42.9132C147.01 44.9932 149.623 46.0332 152.93 46.0332C156.236 46.0332 158.823 44.9932 160.69 42.9132C162.556 40.8332 163.49 37.3932 163.49 32.5932V2.0332H179.09V33.0732C179.09 41.3932 176.77 47.8199 172.13 52.3532C167.49 56.8865 161.036 59.1532 152.77 59.1532Z" fill="#0E0E0E"/>
</svg>
