<svg width="260" height="41" viewBox="0 0 260 41" fill="none" xmlns="http://www.w3.org/2000/svg">
<path d="M15.919 14.0999C15.919 14.0999 13.7689 13.8789 13.7689 15.858V24.6484H27.9675V27.2865C27.9675 27.2865 28.0099 28.6046 26.6767 28.6046H13.7689V40.0332H29.2583C29.2583 40.0332 38.6367 38.538 38.7234 28.6046V14.0999H15.919ZM38.2919 0.0332031H10.3262C0.2139 2.49416 0 11.0656 0 11.0656V40.0332H10.7577V13.6599C10.7577 11.418 12.9078 11.0237 12.9078 11.0237H38.2938V0.0332031H38.2919ZM75.2119 31.7437C74.4743 32.2523 73.9285 32.6256 73.5431 32.8637C72.1638 33.7456 70.8491 34.4256 69.6302 34.9684C67.8655 35.7151 66.2926 36.0884 64.882 36.0884C60.0379 36.0884 56.0272 34.5608 52.7855 31.4713C49.5438 28.3818 47.9433 24.5132 47.9433 19.8294C47.9433 15.3151 49.3871 11.4103 52.3061 8.08273C55.2251 4.75701 58.7545 3.12654 62.9255 3.12654C64.6589 3.12654 66.5176 3.4313 68.4427 4.07892C70.945 4.89225 72.966 6.11511 74.5702 7.70939L71.7784 10.8999C70.5928 9.7132 69.0531 8.82939 67.2552 8.28654C65.9091 7.87892 64.4339 7.67701 62.7965 7.67701C59.8774 7.67701 57.4065 8.89606 55.4501 11.3075C53.4936 13.7513 52.4997 16.637 52.4997 20.0313C52.4997 23.3932 53.6209 26.1418 55.8668 28.3494C58.1128 30.5551 60.9672 31.6751 64.4321 31.6751C65.8759 31.6751 67.3529 31.1989 68.8594 30.2846C70.1115 29.2999 70.7532 28.8237 70.7845 28.7894V21.8313H61.4172L62.7633 17.4865H75.2119V31.7437ZM103.508 23.2561C103.508 26.6161 102.353 29.5361 100.043 31.9799C97.7323 34.4237 94.8779 35.6808 91.4776 35.6808C88.3336 35.6808 85.575 34.458 83.2 32.0484C80.825 29.6389 79.6706 26.7189 79.6706 23.2903C79.6706 19.8961 80.7955 16.9761 83.0396 14.4637C85.2837 11.9513 88.0441 10.7303 91.284 10.7303C94.8779 10.7303 97.7969 11.9189 100.074 14.3284C102.353 16.6713 103.508 19.658 103.508 23.2561ZM99.1116 23.3246C99.1116 21.0503 98.374 19.1151 96.8989 17.5532C95.4237 15.957 93.5945 15.1761 91.4131 15.1761C89.3607 15.1761 87.6274 15.9913 86.1835 17.6218C84.7397 19.2503 84.0335 21.117 84.0335 23.2218C84.0335 25.4294 84.7711 27.2961 86.2149 28.858C87.6587 30.4199 89.4566 31.2332 91.6362 31.2332C93.659 31.2332 95.3905 30.4522 96.8675 28.8903C98.3741 27.3284 99.1135 25.4618 99.1135 23.3246H99.1116ZM131.418 23.2561C131.418 26.6161 130.264 29.5361 127.953 31.9799C125.643 34.4237 122.788 35.6808 119.388 35.6808C116.244 35.6808 113.485 34.458 111.11 32.0484C108.737 29.6389 107.581 26.7189 107.581 23.2903C107.581 19.8961 108.706 16.9761 110.95 14.4637C113.196 11.9513 115.954 10.7303 119.194 10.7303C122.788 10.7303 125.707 11.9189 127.985 14.3284C130.264 16.6713 131.418 19.658 131.418 23.2561ZM127.022 23.3246C127.022 21.0503 126.284 19.1151 124.809 17.5532C123.334 15.957 121.505 15.1761 119.323 15.1761C117.271 15.1761 115.538 15.9913 114.094 17.6218C112.65 19.2503 111.944 21.117 111.944 23.2218C111.944 25.4294 112.681 27.2961 114.127 28.858C115.569 30.4199 117.367 31.2332 119.548 31.2332C121.569 31.2332 123.301 30.4522 124.778 28.8903C126.284 27.3284 127.024 25.4618 127.024 23.3246H127.022ZM157.245 35.0008L153.203 35.6465V31.6065L152.336 32.6237C151.573 33.3624 150.708 33.9805 149.769 34.458C148.392 35.1142 146.892 35.4504 145.375 35.4427C142.231 35.4427 139.535 34.2542 137.354 31.8427C135.172 29.4313 134.083 26.5818 134.083 23.2561C134.083 19.8275 135.172 16.8751 137.322 14.4294C139.472 11.9837 142.102 10.7627 145.246 10.7627C147.044 10.7627 148.615 11.0675 149.93 11.6789C150.861 12.1208 151.663 12.698 152.336 13.4123C152.561 13.717 152.786 14.0561 153.011 14.3608V3.77035L157.307 3.12463L157.245 35.0008ZM153.459 23.5608C153.459 21.1856 152.688 19.1818 151.117 17.5532C149.546 15.8884 147.78 15.0751 145.76 15.0751C143.514 15.0751 141.718 15.8561 140.339 17.418C139.054 18.9094 138.381 20.7437 138.381 22.8827C138.381 25.2923 139.054 27.2942 140.402 28.8561C141.748 30.418 143.45 31.1989 145.535 31.1989C147.588 31.1989 149.386 30.4865 150.99 29.0275C152.626 27.5323 153.461 25.6999 153.461 23.5608H153.459ZM179.926 8.18558H167.895V16.637H177.23V20.9818H167.895V34.9684L163.212 35.6808V3.80463H178.994L179.926 8.18558ZM189.582 5.70558L186.695 9.4732L183.936 5.70558L186.855 1.97225L189.582 5.70558ZM188.716 35.0008L184.417 35.6123V12.0199L188.716 11.3418V35.0027V35.0008ZM208.125 11.1037L206.104 15.9227C205.839 15.8809 205.571 15.8586 205.302 15.8561C204.886 15.8561 204.469 15.8903 204.05 15.957C203.632 16.0237 203.184 16.1951 202.704 16.4332C201.806 16.8408 201.035 17.7227 200.362 19.0465C199.617 20.549 199.232 22.2138 199.237 23.9018V34.9684L194.941 35.6808V12.0199L198.918 11.2732V16.1951C199.431 15.3456 199.977 14.498 200.49 13.6161C201.227 12.7323 202.094 12.0884 203.056 11.7132C203.569 11.5113 204.5 11.3399 205.911 11.2046C207.259 11.1037 208.03 11.0351 208.125 11.1037ZM240.14 35.0008L235.842 35.6465V19.4542C235.842 17.9589 235.521 16.8732 234.88 16.1951C234.238 15.5151 233.275 15.1761 232.023 15.1761C230.517 15.1761 229.361 15.8218 228.592 17.1113C228.077 17.9932 227.79 18.9437 227.79 19.8942V34.9665L223.491 35.7818V19.5551C223.491 18.1303 223.17 17.0427 222.56 16.298C221.918 15.5494 221.085 15.1761 219.993 15.1761H219.576C218.068 15.1761 216.976 15.8218 216.303 17.1456C215.791 18.1303 215.534 19.3856 215.534 20.9132V34.9665L211.076 35.7818V12.0199L215.085 11.3075V14.3284C215.534 13.6142 215.983 13.037 216.401 12.6313C217.555 11.5113 218.903 10.9665 220.41 10.9665C222.11 10.9665 223.36 11.2389 224.227 11.8161C224.965 12.2923 225.671 13.2408 226.377 14.5989C227.852 12.1894 229.938 10.9665 232.698 10.9665C235.328 10.9665 237.286 11.8161 238.568 13.5475C239.628 14.9722 240.14 17.077 240.14 19.8275V35.0008ZM259.779 27.8389C259.779 30.0103 259.041 31.8103 257.566 33.2027C256.091 34.6275 254.228 35.3075 251.982 35.3075C250.282 35.3075 248.774 34.8999 247.395 34.0846C246.015 33.2713 244.99 32.3532 244.315 31.2675L247.332 28.4846C247.555 28.8237 247.749 29.0942 247.94 29.298C249.065 30.4865 250.411 31.098 251.982 31.098C253.074 31.098 253.941 30.7932 254.549 30.2161C255.191 29.6389 255.48 28.8237 255.48 27.7703C255.48 26.5837 254.743 25.7684 253.268 25.3265C250.347 24.4103 248.774 23.9018 248.551 23.7989C247.203 23.0865 246.24 22.3399 245.63 21.4903C244.957 20.5056 244.605 19.2161 244.605 17.5532C244.605 15.5151 245.342 13.8199 246.786 12.4618C248.23 11.1037 249.961 10.458 251.949 10.458C253.459 10.458 254.87 10.797 256.154 11.5113C257.437 12.2237 258.366 12.9703 258.912 13.8542L256.345 16.738C255.96 16.3393 255.541 15.9761 255.095 15.6523C254.068 14.9056 253.074 14.5323 252.145 14.5323C251.245 14.5323 250.507 14.7361 249.93 15.1418C249.255 15.6523 248.903 16.3989 248.903 17.3837C248.903 18.3342 249.224 19.0465 249.899 19.4884C250.476 19.8618 251.695 20.2694 253.62 20.7094C255.543 21.1856 257.02 22.0008 258.079 23.1551C259.266 24.3761 259.779 25.9037 259.779 27.8389Z" fill="#0E0E0E"/>
</svg>
