<svg width="260" height="89" viewBox="0 0 260 89" fill="none" xmlns="http://www.w3.org/2000/svg">
<g clip-path="url(#clip0_592_5305)">
<path d="M71.1564 55.6102C66.9313 55.6102 62.9723 53.5839 59.3753 50.2854L60.2512 45.6289L60.2893 45.4563C61.0692 40.4984 63.5435 32.1764 71.1564 32.1764C76.8658 32.1764 81.5098 37.4368 81.5098 43.9039C81.4905 50.3498 76.847 55.6102 71.1564 55.6102ZM71.1564 20.2981C61.4307 20.2981 53.8945 27.4554 50.8306 39.2261C46.1485 31.2711 42.6084 21.721 40.5342 13.6797H30.0666V44.5291C30.0666 50.6086 25.6892 55.5665 20.3221 55.5665C14.955 55.5665 10.5781 50.6086 10.5781 44.5291V13.6797H0.109494V44.5291C0.071412 57.1626 9.14974 67.5317 20.3023 67.5317C31.4553 67.5317 40.5337 57.1626 40.5337 44.5291V39.3555C42.5698 44.1628 45.0629 49.0131 48.0892 53.3251L41.6751 87.4726H52.3905L57.034 62.7026C61.1068 65.656 65.7889 67.5104 71.1559 67.5104C82.6319 67.5104 91.9768 56.8606 91.9768 43.8608C91.9768 30.8828 82.6319 20.2981 71.1559 20.2981H71.1564Z" fill="#0E0E0E"/>
<path d="M123.926 21.6343L130.682 52.4837L138.124 21.6343H146.993L135.555 66.2163H126.686L119.663 35.1725L112.659 66.1945H103.79L92.3516 21.613H101.221L108.662 52.4625L115.418 21.613H123.925V21.6348L123.926 21.6343ZM168.213 20.2976C156.699 20.2976 147.373 30.8823 147.373 43.9035C147.373 56.9464 156.718 67.5099 168.213 67.5099C179.728 67.5099 189.072 56.9464 189.072 43.9035C189.072 30.861 179.728 20.2976 168.213 20.2976ZM168.213 57.8086C161.438 57.8086 155.957 51.5997 155.957 43.9253C155.957 36.2503 161.457 30.042 168.213 30.042C174.989 30.042 180.47 36.2503 180.47 43.9253C180.47 51.5784 174.989 57.8086 168.213 57.8086ZM214.403 31.6157C208.447 31.6157 203.632 37.0912 203.632 43.8172V66.1945H194.705V21.6343H203.632V28.4896C203.632 28.4896 207.438 21.6124 215.26 21.6124H218V31.6157H214.403ZM244.36 42.1791C250.697 38.1259 254.999 30.4297 254.999 21.6124H246.072C246.072 29.0499 240.744 35.0862 234.178 35.0862H232.979V0.119141H224.053V66.1939H232.979V45.197H234.045C234.92 45.197 236.062 45.8441 236.576 46.6412L249.251 66.1945H259.947L244.36 42.1791Z" fill="#0E0E0E"/>
</g>
<defs>
<clipPath id="clip0_592_5305">
<rect width="260" height="88" fill="white" transform="translate(0 0.0332031)"/>
</clipPath>
</defs>
</svg>
