<svg width="1440" height="749" viewBox="0 0 1440 749" fill="none" xmlns="http://www.w3.org/2000/svg">
<path d="M-240.82 238.725C-126.899 227.075 -46.4988 190.023 6.19122 157.945C59.4726 125.506 97.8464 89.921 167.966 70.7891C245.305 49.5314 295.838 59.0548 315.825 64.4118C343.536 71.852 341.814 76.9113 387.146 94.1725C474.226 127.334 490.769 112.582 529.786 134.562C594.479 170.998 575.187 226.289 642.855 287.617C691.857 332.046 772.988 367.397 846.378 342.887C915.489 319.801 923.265 261.832 995.977 253.605C1025.84 250.225 1050.68 257.729 1100.35 272.737C1164 291.869 1206.74 315.465 1223.85 323.755C1274.56 348.35 1356.4 363.826 1490 315.252" stroke="url(#paint0_linear_446_5275)" stroke-width="0.946789" stroke-miterlimit="10"/>
<path d="M-241.586 257.473C-131.387 247.418 -49.0039 213.874 8.46975 180.627C55.1584 153.247 90.7663 123.231 139.838 101.782C150.571 97.1052 161.878 92.5773 174.054 88.6659C250.785 64.0496 301.126 68.1098 322.14 70.5969C350.32 73.9131 350.32 77.697 394.747 94.4693C426.058 106.267 448.359 113.006 465.632 117.428C494.995 124.931 509.694 125.442 532.865 139.876C541.51 145.217 549.624 151.758 557.044 159.369C591.365 194.55 589.904 239.149 646.838 286.426C696.397 327.581 776.989 358.702 849.127 334.362C854.842 332.429 860.473 330.145 866 327.517C921.769 300.966 934.293 254.263 998.203 246.929C1004.94 246.145 1011.71 245.91 1018.47 246.228C1041.19 247.206 1064.67 254.136 1101.86 265.36C1163.47 284.066 1205.55 307.216 1224.43 316.378C1238.25 323.026 1252.51 328.246 1267.05 331.981C1317.35 345.076 1388.46 346.436 1488.5 313.019" stroke="url(#paint1_linear_446_5275)" stroke-width="0.946789" stroke-miterlimit="10"/>
<path d="M-242.352 277.88C-135.893 269.377 -51.4395 239.616 10.7483 204.796C60.1332 177.161 97.3937 145.594 145.561 123.061C156.555 117.895 167.949 112.666 180.177 108.18C256.299 80.184 306.379 76.8041 328.506 78.4197C357.017 80.5454 358.913 80.1415 402.366 96.4036C432.79 107.819 455.004 115.536 471.947 120.956C500.492 130.033 514.217 131.861 535.891 146.848C544.15 152.62 551.913 159.393 559.062 167.064C592.217 202.012 593.852 243.932 650.856 286.957C700.972 324.817 781.024 351.708 851.91 327.538C857.911 325.412 863.46 323.287 868.661 320.736C926.187 293.696 938.92 249.161 1000.48 242.082C1007.16 241.278 1013.88 241.016 1020.59 241.296C1043.69 242.125 1067.14 248.864 1103.43 259.981C1163.02 278.178 1204.41 300.945 1225.05 310.766C1238.77 317.354 1252.89 322.586 1267.29 326.412C1317.14 339.804 1387.92 342.631 1486.97 312.53" stroke="url(#paint2_linear_446_5275)" stroke-width="0.946789" stroke-miterlimit="10"/>
<path d="M-243.109 299.668C-140.391 292.801 -53.9194 266.548 13.0346 230.453C65.0462 202.393 104.011 169.379 151.239 145.741C162.511 140.086 174.01 134.177 186.256 129.096C261.768 97.7623 311.501 91.1937 334.828 87.6224C363.687 83.2221 367.461 83.9661 409.958 99.718C439.53 110.708 461.656 119.424 478.356 125.844C506.066 136.473 518.852 139.661 539.03 155.179C546.839 161.39 554.206 168.395 561.052 176.118C593.042 210.811 597.878 250.031 654.812 288.784C705.554 323.349 784.998 346.03 854.631 322.009C860.58 319.884 866.094 317.758 871.26 315.271C930.508 287.636 943.503 245.354 1002.68 238.318C1009.31 237.494 1015.99 237.203 1022.65 237.446C1046.13 238.105 1069.62 244.695 1104.95 255.6C1162.49 273.266 1203.21 295.629 1225.62 306.279C1239.25 312.767 1253.25 318.004 1267.52 321.946C1316.92 335.636 1387.38 339.951 1485.41 313.145" stroke="url(#paint3_linear_446_5275)" stroke-width="0.946789" stroke-miterlimit="10"/>
<path d="M-243.867 321.499C-144.871 316.227 -56.4168 293.524 15.321 256.132C69.9766 227.625 110.629 193.145 156.953 168.444C168.486 162.3 180.071 155.689 192.369 150.035C267.273 115.427 316.553 103.651 341.185 96.8906C370.287 88.8977 375.975 87.8561 417.584 103.098C446.373 113.727 468.309 123.378 484.73 130.733C511.605 142.892 523.434 147.484 542.134 163.512C549.479 170.148 556.453 177.378 563.008 185.152C593.85 219.547 601.886 256.089 658.769 290.697C710.137 321.945 788.954 340.44 857.352 316.588C863.232 314.463 868.711 312.337 873.86 309.892C934.847 281.683 948.068 241.868 1004.88 234.746C1011.47 233.934 1018.09 233.614 1024.71 233.79C1048.54 234.3 1071.96 240.72 1106.47 251.412C1161.99 268.589 1202.04 290.569 1226.2 301.984C1239.73 308.409 1253.62 313.659 1267.76 317.694C1316.72 331.703 1386.84 337.463 1483.89 313.995" stroke="url(#paint4_linear_446_5275)" stroke-width="0.946789" stroke-miterlimit="10"/>
<path d="M-244.602 335.572C-149.328 331.894 -58.8733 312.762 17.6307 274.073C74.913 245.099 117.27 209.088 162.689 183.409C174.466 176.756 186.173 169.528 198.506 163.236C272.766 125.355 321.646 108.476 347.513 98.3785C376.876 86.9419 384.582 83.9446 425.182 98.6974C447.603 106.874 469.612 116.655 491.093 127.99C517.185 141.659 528.023 147.696 545.192 164.128C552.689 171.335 558.638 179.009 565.074 186.47C594.768 220.483 606.023 254.495 662.8 284.851C714.847 312.762 793.003 327.09 860.149 303.409C865.976 301.283 871.421 299.157 876.535 296.755C939.279 268.036 952.726 230.325 1007.17 223.416C1013.71 222.601 1020.28 222.26 1026.85 222.396C1051.06 222.8 1074.44 228.986 1108.01 239.402C1161.5 256.025 1200.89 277.666 1226.79 289.846C1240.23 296.203 1254.01 301.458 1268.03 305.577C1316.55 319.905 1386.32 327.153 1482.37 306.98" stroke="url(#paint5_linear_446_5275)" stroke-width="0.946789" stroke-miterlimit="10"/>
<path d="M-245.406 345.608C-153.873 343.482 -61.4175 327.9 19.8702 287.957C79.7792 258.515 123.806 220.932 168.355 194.423C180.393 187.238 192.187 179.373 204.572 172.485C278.276 131.394 326.773 109.435 353.858 95.9579C383.429 81.1838 393.136 76.1245 432.797 90.3671C455.02 98.3488 476.645 108.632 497.437 121.106C522.678 136.241 532.593 143.766 548.266 160.772C555.224 168.276 560.704 176.269 567.088 183.816C595.651 217.615 610.141 248.694 666.779 275.032C719.539 299.564 797.017 309.767 862.91 286.235C868.668 284.109 874.06 281.984 879.175 279.624C943.676 250.459 957.401 214.916 1009.41 208.262C1015.9 207.426 1022.42 207.056 1028.95 207.157C1053.51 207.412 1076.89 213.406 1109.54 223.695C1160.99 239.83 1199.7 261.066 1227.37 274.055C1240.73 280.33 1254.39 285.591 1268.27 289.806C1316.35 304.453 1385.79 313.19 1480.86 296.29" stroke="url(#paint6_linear_446_5275)" stroke-width="0.946789" stroke-miterlimit="10"/>
<path d="M-246.148 355.791C-158.355 355.302 -63.9339 343.185 22.1722 301.988C84.6905 272.057 130.37 232.858 174.049 205.393C186.348 197.634 198.264 189.131 210.684 181.691C283.796 137.433 331.946 110.478 360.195 93.4718C390.167 75.4453 401.7 68.2602 440.404 81.9927C462.466 89.8907 483.734 100.786 503.81 114.474C528.163 131.034 537.174 140.132 551.368 157.564C557.735 165.386 562.78 173.634 569.094 181.33C596.544 214.768 614.321 243.083 670.786 265.361C724.276 286.47 801.024 292.571 865.612 269.23C871.318 267.104 876.676 264.979 881.755 262.64C948.013 232.88 961.894 199.569 1011.61 192.958C1018.05 192.121 1024.52 191.723 1030.99 191.767C1055.93 191.767 1079.28 197.677 1111.01 207.795C1160.44 223.377 1198.45 244.274 1227.9 258.006C1241.16 264.229 1254.71 269.509 1268.47 273.822C1316.1 288.702 1385.21 298.927 1479.26 285.386" stroke="url(#paint7_linear_446_5275)" stroke-width="0.946789" stroke-miterlimit="10"/>
<path d="M-246.914 366.016C-162.843 367.122 -66.4391 358.512 24.4507 316.061C89.5956 285.641 136.928 244.805 179.755 216.511C192.279 208.242 204.334 199.165 216.772 191.002C289.31 143.576 337.146 111.626 366.544 91.091C396.881 69.8334 410.258 60.48 448.023 73.7023C469.917 81.5091 490.83 92.9535 510.176 107.715C533.781 125.72 541.731 136.391 554.447 154.248C560.24 162.41 564.884 170.871 571.111 178.715C597.448 211.813 618.479 237.301 674.769 255.583C729.025 273.205 805.025 275.289 868.413 252.097C874.066 249.971 879.389 247.845 884.433 245.57C952.466 215.363 966.539 184.178 1013.91 177.695C1020.3 176.856 1026.72 176.43 1033.14 176.419C1058.45 176.228 1081.85 182.01 1112.62 191.916C1160.01 206.988 1197.36 227.523 1228.56 242.02C1241.73 248.2 1255.15 253.515 1268.78 257.942C1315.97 273.205 1384.75 284.833 1477.82 274.608" stroke="url(#paint8_linear_446_5275)" stroke-width="0.946789" stroke-miterlimit="10"/>
<path d="M-247.672 376.194C-167.324 378.83 -68.9016 373.706 26.7719 330.022C94.6131 299.092 143.494 256.598 185.503 227.518C198.271 218.674 210.448 209.023 222.92 200.265C294.866 149.736 342.407 112.811 372.936 88.6412C403.708 64.2587 418.877 52.652 455.685 65.3641C477.427 73.1439 497.989 85.1912 516.568 101.034C539.356 120.421 546.314 132.751 557.551 151.011C562.769 159.514 566.962 168.166 573.207 176.18C598.464 208.917 622.783 231.45 678.865 245.863C733.886 259.957 809.12 258.065 871.273 235.043C876.857 232.917 882.145 230.791 887.172 228.665C956.962 197.991 971.243 168.931 1016.23 162.618C1022.58 161.734 1028.97 161.28 1035.36 161.257C1061.04 161.045 1084.35 166.508 1114.28 176.138C1159.63 190.699 1196.3 210.873 1229.28 226.136C1241.2 231.663 1254.4 237.126 1269.17 242.015C1315.91 257.576 1384.36 270.692 1476.42 263.762" stroke="url(#paint9_linear_446_5275)" stroke-width="0.946789" stroke-miterlimit="10"/>
<path d="M-248.438 386.081C-171.899 390.332 -71.4764 388.717 29.0156 343.821C99.3965 312.381 149.964 268.186 191.173 238.34C204.168 228.923 216.483 218.719 228.991 209.323C300.415 155.69 347.695 113.813 379.233 86.029C410.44 58.394 427.383 44.6616 463.251 56.8635C484.866 64.6234 505.102 77.255 522.917 94.1069C544.922 114.897 550.749 128.906 560.612 147.527C565.257 156.371 569.031 165.235 575.137 173.398C599.316 205.731 626.905 225.437 682.761 235.895C738.617 246.354 813.034 240.572 873.934 217.72C879.466 215.594 884.719 213.469 889.712 211.343C961.275 180.2 975.766 153.267 1018.44 147.102C1024.72 146.204 1031.05 145.729 1037.38 145.678C1063.47 145.274 1086.71 150.588 1115.66 160.091C1158.99 174.121 1194.96 193.954 1229.72 209.961C1241.58 215.446 1254.68 220.888 1269.27 225.883C1315.56 241.741 1383.68 256.324 1474.75 252.732" stroke="url(#paint10_linear_446_5275)" stroke-width="0.946789" stroke-miterlimit="10"/>
<path d="M-249.188 395.839C-176.319 401.727 -74.0007 403.534 31.3097 357.447C104.369 325.561 156.451 279.559 196.86 249.033C210.097 239.021 222.552 228.286 235.129 218.252C305.997 161.494 353.034 114.727 385.563 83.2023C417.274 52.5488 436.009 36.4355 470.799 48.1484C493.9 55.9287 514.878 72.0208 529.229 86.9649C550.469 109.115 555.322 124.846 563.654 143.829C567.69 153.012 571.065 162.089 577.083 170.422C600.202 202.309 631.009 219.081 686.673 225.692C743.26 232.474 816.963 222.865 876.611 200.183C882.073 198.057 887.292 195.932 892.267 193.806C965.587 162.175 980.269 137.367 1020.54 131.372C1026.78 130.461 1033.06 129.957 1039.34 129.863C1065.77 129.246 1089.01 134.433 1117.13 143.744C1158.43 157.264 1193.67 176.736 1230.2 193.508C1242.01 198.929 1255.01 204.392 1269.41 209.452C1315.27 225.629 1383.05 241.678 1473.11 241.338" stroke="url(#paint11_linear_446_5275)" stroke-width="0.946789" stroke-miterlimit="10"/>
<path d="M-249.953 405.467C-180.807 412.971 -76.5928 417.967 33.5883 370.924C109.136 338.272 162.921 290.782 202.565 259.512C216.011 248.884 228.658 237.638 241.2 226.967C311.581 167.212 358.391 115.385 391.911 80.2891C424.145 46.5319 444.48 28.1653 478.47 39.3469C500.753 46.7445 521.627 63.6869 535.648 79.7364C556.122 103.247 559.81 120.679 566.785 140.044C570.264 149.568 573.204 158.815 579.153 167.318C601.21 198.864 635.287 212.554 690.743 215.509C748.147 218.549 821.051 205.178 879.446 182.645C884.862 180.533 890.04 178.407 894.98 176.267C970.092 144.211 984.965 121.486 1022.87 115.662C1029.06 114.726 1035.28 114.194 1041.52 114.068C1068.31 113.281 1091.55 118.319 1118.77 127.417C1158.01 140.406 1192.61 159.623 1230.93 177.075C1242.69 182.475 1255.56 187.895 1269.81 193.04C1315.21 209.536 1382.67 227.052 1471.73 230.071" stroke="url(#paint12_linear_446_5275)" stroke-width="0.946789" stroke-miterlimit="10"/>
<path d="M-250.727 414.951C-185.321 424.028 -79.1057 432.531 35.859 384.255C114.033 351.115 169.402 301.797 208.263 269.91C221.918 258.707 234.703 246.909 247.297 235.6C317.174 172.805 363.845 116.005 398.235 77.2096C431.025 40.3275 453.03 19.6226 485.994 30.3152C507.477 37.309 528.264 55.1229 541.919 72.3203C561.663 97.1918 564.185 116.366 569.752 136.093C572.57 145.978 575.196 155.417 581.041 164.068C602.176 195.19 639.506 207.944 694.736 205.074C752.801 202.056 825.061 187.239 882.221 164.876C887.579 162.765 892.716 160.639 897.633 158.499C974.555 126.145 989.584 105.355 1025.12 99.7002C1031.26 98.7568 1037.44 98.2034 1043.63 98.0421C1070.79 97.1068 1094.08 101.954 1120.31 110.797C1157.45 123.381 1191.44 142.364 1231.52 160.455C1243.22 165.812 1255.99 171.232 1270.05 176.462C1315.01 193.276 1382.14 212.259 1470.2 218.594" stroke="url(#paint13_linear_446_5275)" stroke-width="0.946789" stroke-miterlimit="10"/>
<path d="M-251.562 424.322C-189.879 434.951 -81.6812 447.004 38.0672 397.474C118.868 363.844 175.715 312.719 213.88 280.11C227.796 268.291 240.721 256.004 253.315 243.972C322.722 178.073 369.132 116.426 404.514 73.9108C437.93 33.9464 461.64 11.0306 493.682 21.1918C514.347 27.7816 535.047 46.4459 548.355 64.7912C567.368 90.9807 568.672 111.898 572.934 131.965C575.126 142.212 577.405 151.82 583.162 160.663C603.167 191.359 643.593 198.927 698.719 194.505C757.549 189.85 829.043 169.166 884.951 146.973C890.17 144.848 895.389 142.722 900.242 140.596C978.92 107.753 994.176 89.0675 1027.35 83.6042C1033.44 82.6352 1039.56 82.0534 1045.7 81.8611C1073.22 80.7557 1096.42 85.4537 1121.82 94.1268C1157.01 106.095 1190.25 124.61 1232.09 143.572C1243.76 148.887 1256.44 154.201 1270.36 159.622C1314.87 176.628 1381.69 197.184 1468.66 206.835" stroke="url(#paint14_linear_446_5275)" stroke-width="0.946789" stroke-miterlimit="10"/>
<path d="M-252.234 433.589C-194.291 445.855 -84.1274 461.373 40.4395 410.61C123.936 376.491 182.21 323.453 219.61 290.27C233.665 277.813 246.851 265.059 259.445 252.431C328.486 183.727 374.601 116.808 410.783 70.636C444.738 27.4617 470.013 2.33513 501.238 12.0286C521.086 18.2146 541.734 37.7291 554.676 57.2011C572.975 84.8361 573.028 107.369 575.985 127.819C577.498 138.448 579.464 148.205 585.117 157.218C604.113 187.489 647.74 191.826 702.656 183.897C762.2 175.394 833.016 151.054 887.654 129.01C892.873 126.884 897.97 124.758 902.823 122.802C983.275 89.4703 998.705 72.8255 1029.53 67.5324C1035.61 66.5771 1041.73 66.0095 1047.86 65.8318C1073.38 64.6573 1098.89 68.607 1123.36 77.5235C1156.51 88.9813 1189.08 107.135 1232.69 126.862C1244.31 132.113 1256.87 137.491 1270.56 142.933C1334.56 167.961 1400.37 185.479 1467.09 195.248" stroke="url(#paint15_linear_446_5275)" stroke-width="0.946789" stroke-miterlimit="10"/>
<path d="M-253 442.797C-198.779 456.657 -86.6325 475.682 42.718 423.665C128.772 389.057 188.594 334.234 225.367 300.37C388.586 149.93 440.25 -18.0905 508.909 2.76327C527.939 8.54535 548.535 28.9102 561.094 49.5301C587.918 93.5335 571.01 126.908 587.187 153.693C626.848 219.379 805.253 146.019 905.519 104.8C1003.28 64.6018 1006.9 51.6559 1049.9 49.5301C1124.96 45.7675 1163.98 82.607 1270.82 126.058C1334.34 151.768 1399.51 170.966 1465.64 183.453" stroke="url(#paint16_linear_446_5275)" stroke-width="0.946789" stroke-miterlimit="10"/>
<path d="M-253 448.874C-197.335 464.031 -88.6678 481.398 34.9946 431.613C120.353 397.154 177.635 341.799 217.105 306.193C374.775 164.128 423.951 10.2648 493.897 23.9973C521.225 29.3542 548.97 40.0893 567.287 56.5428C603.278 88.8969 589.901 117.829 610.775 143.699C656.472 200.372 822.874 136.748 918.339 98.9305C1011.33 61.9635 1015.09 51.5047 1060.54 53.6305C1136.07 57.1592 1173.32 89.7685 1273.97 131.476C1336.76 157.484 1401.42 176.209 1467.09 187.405" stroke="url(#paint17_linear_446_5275)" stroke-width="0.946789" stroke-miterlimit="10"/>
<path d="M-253 455.211C-160.169 481.326 -63.266 475.997 27.2711 439.799C111.933 405.511 166.572 349.582 208.842 312.253C360.754 178.202 408.312 36.2013 478.902 45.4697C514.719 50.1889 548.396 51.3793 573.48 63.815C616.515 85.0727 608.131 108.669 634.363 133.965C684.478 182.241 840.496 127.716 931.177 93.2994C1019.25 59.5635 1023.16 51.3793 1071.21 57.9692C1147.02 68.3429 1182.66 97.3809 1277.11 137.154C1339.16 163.441 1403.3 181.695 1468.46 191.616" stroke="url(#paint18_linear_446_5275)" stroke-width="0.946789" stroke-miterlimit="10"/>
<path d="M-253 466.478C-162.872 492.906 -68.5068 488.21 19.565 452.916C103.514 418.776 155.526 362.273 200.579 323.244C346.42 196.931 393.179 81.7994 463.89 71.872C508.126 65.6648 547.248 68.2157 579.69 75.996C628.709 87.7302 625.856 104.46 657.968 129.14C711.128 169.997 858.152 123.826 943.997 92.5982C1027.28 62.3061 1031.16 55.9926 1081.85 67.2166C1157.91 84.0527 1191.98 109.881 1280.28 147.741C1341.59 174.338 1405.22 192.129 1469.89 200.757" stroke="url(#paint19_linear_446_5275)" stroke-width="0.946789" stroke-miterlimit="10"/>
<path d="M-253 483.631C-165.582 510.358 -73.756 506.275 11.8416 471.855C95.0949 437.842 144.462 380.765 192.317 340.057C331.982 221.248 378.254 117.107 448.895 104.097C501.377 94.4461 547.717 79.6933 585.882 93.9997C638.399 113.684 640.364 115.045 681.556 130.138C731.115 176.075 875.791 125.695 956.835 97.7197C1035.29 70.7225 1039.15 66.2584 1092.52 82.3079C1168.76 105.245 1201.29 128.288 1283.43 164.15C1344 191.049 1407.13 208.372 1471.3 215.7" stroke="url(#paint20_linear_446_5275)" stroke-width="0.946789" stroke-miterlimit="10"/>
<path d="M-253 501.191C-168.296 528.234 -79.0042 524.824 4.15292 491.37C86.7104 457.528 133.416 399.813 184.089 357.447C317.44 245.929 363.189 151.822 433.814 136.899C494.697 124.059 545.352 103.694 592.11 112.601C652.402 124.08 657.742 119.574 705.179 131.733C757.173 172.612 893.412 127.97 969.585 103.418C1043.2 79.7155 1047.06 76.8883 1103.09 97.9759C1179.63 126.716 1210.51 147.315 1286.51 181.136C1346.34 208.339 1408.99 225.196 1472.64 231.219" stroke="url(#paint21_linear_446_5275)" stroke-width="0.946789" stroke-miterlimit="10"/>
<path d="M-253 519.09C-171.029 546.395 -84.2959 543.623 -3.60536 511.118C78.2563 477.425 122.266 419.072 175.791 375.069C302.776 270.673 348.003 186.088 418.889 169.933C488 154.181 543.89 141.256 598.268 131.414C665.413 119.254 675.05 124.292 728.732 133.539C783.248 169.486 911.033 130.563 982.492 109.348C1051.27 88.9409 1055.13 87.6229 1113.83 113.876C1190.5 148.186 1219.85 166.659 1289.66 198.375C1348.76 225.871 1410.93 242.263 1474.05 246.992" stroke="url(#paint22_linear_446_5275)" stroke-width="0.946789" stroke-miterlimit="10"/>
<path d="M-253 537.223C-188.238 560.118 -100.792 567.835 -11.3114 531.123C69.9067 497.791 111.151 438.545 167.528 392.948C288.025 295.503 332.783 220.123 403.877 203.223C481.39 184.814 543.038 166.809 604.478 150.483C678.059 130.905 694.063 117.236 752.337 135.603C812.716 154.628 928.654 133.477 995.313 115.535C1059.26 98.4016 1063.15 98.5292 1124.47 130.012C1201.53 169.7 1229.12 186.302 1292.89 215.85C1332.54 234.217 1392.34 258.238 1475.54 263" stroke="url(#paint23_linear_446_5275)" stroke-width="0.946789" stroke-miterlimit="10"/>
<path d="M-253 555.676C-186.724 579.824 -102.827 585.925 -19.0349 551.424C61.4874 518.262 100 458.252 159.266 411.124C273.187 320.502 317.301 254.114 388.882 236.811C474.814 216.021 542.342 192.786 610.671 169.849C690.88 142.916 710.902 122.423 775.925 137.963C837.904 152.843 946.258 136.517 1008.15 122.019C1067.29 108.159 1071.33 109.435 1135.14 146.466C1212.58 191.383 1238.36 206.327 1296.04 233.622C1335.11 252.116 1394.03 276.137 1476.95 279.326" stroke="url(#paint24_linear_446_5275)" stroke-width="0.946789" stroke-miterlimit="10"/>
<path d="M-253 574.342C-185.159 599.851 -104.863 604.23 -26.7583 571.961C53.0681 538.969 88.8152 478.172 151.003 429.535C258.296 345.609 301.819 288.129 373.87 270.634C468.308 247.697 541.733 219.063 616.863 189.451C703.839 155.183 727.757 128.335 799.513 140.558C863.179 151.4 963.862 139.899 1020.97 128.739C1075.21 118.11 1079.51 120.555 1145.78 163.155C1223.71 213.217 1247.58 226.652 1299.19 251.629C1337.7 270.272 1395.7 294.379 1478.36 295.867" stroke="url(#paint25_linear_446_5275)" stroke-width="0.946789" stroke-miterlimit="10"/>
<path d="M-253 593.279C-183.715 620 -106.881 622.785 -34.4818 592.748C44.6489 559.905 77.5953 498.257 142.74 448.196C243.337 370.86 285.085 311.913 358.875 304.706C463.49 294.481 541.177 245.61 623.056 209.302C716.868 167.722 748.301 113.643 823.1 143.403C885.584 168.338 981.397 143.403 1033.81 135.708C1083.18 128.374 1087.73 131.839 1156.44 180.073C1234.91 235.194 1256.76 247.311 1302.34 269.886C1340.28 288.699 1397.38 312.827 1479.77 312.678" stroke="url(#paint26_linear_446_5275)" stroke-width="0.946789" stroke-miterlimit="10"/>
<path d="M-253 612.841C-182.202 640.858 -108.916 641.921 -42.1878 614.286C36.2296 581.592 66.3407 519.009 134.478 467.608C228.412 396.757 269.586 348.204 343.863 339.531C456.932 326.287 540.69 272.931 629.266 229.905C729.984 181.013 763.852 123.383 846.706 147C912.425 165.75 999.053 147.808 1046.63 143.429C1091.14 139.326 1096.1 143.79 1167.09 197.764C1246.19 257.88 1265.95 268.785 1305.5 288.895C1342.85 307.9 1399.07 332.006 1481.19 330.22" stroke="url(#paint27_linear_446_5275)" stroke-width="0.946789" stroke-miterlimit="10"/>
<path d="M-253 633.624C-180.706 662.938 -110.968 662.364 -49.9113 636.812C27.8104 604.267 55.0338 540.664 126.215 488.009C213.295 423.577 254.069 385.483 328.869 375.343C450.426 358.869 540.238 301.26 635.459 251.517C743.17 195.248 779.839 135.28 870.294 151.606C939.074 164.021 1016.62 153.094 1059.47 152.138C1099.09 151.245 1104.5 156.687 1177.75 216.442C1257.51 281.512 1275.17 291.333 1308.65 308.913C1345.41 328.172 1400.85 352.194 1482.6 348.771" stroke="url(#paint28_linear_446_5275)" stroke-width="0.946789" stroke-miterlimit="10"/>
<path d="M-253 654.778C-179.192 685.389 -113.004 683.136 -57.6348 659.837C19.3911 627.419 43.6747 562.668 117.952 508.908C198.231 450.789 238.501 423.218 313.857 411.654C443.833 391.714 539.82 330.067 641.651 273.607C756.46 209.983 796.225 148.548 893.881 156.69C965.55 162.663 1034.21 158.815 1072.29 161.345C1107.01 163.62 1112.96 169.997 1188.4 235.619C1268.92 305.621 1284.21 314.549 1311.8 329.429C1347.93 349.008 1402.43 372.901 1484.01 367.821" stroke="url(#paint29_linear_446_5275)" stroke-width="0.946789" stroke-miterlimit="10"/>
<path d="M-253 677.799C-177.679 709.686 -115.091 705.647 -65.3582 684.708C10.9196 652.226 32.2287 586.349 109.689 531.653C183.132 479.784 222.915 462.778 298.862 449.811C437.188 426.194 539.437 360.741 647.774 297.542C769.541 226.563 813.359 173.313 917.4 163.619C991.538 156.732 1051.71 166.383 1085.05 172.398C1114.92 177.798 1121.41 185.153 1198.99 256.621C1280.3 331.576 1293.24 339.526 1314.88 351.749C1350.33 371.795 1404.05 395.413 1485.35 388.695" stroke="url(#paint30_linear_446_5275)" stroke-width="0.946789" stroke-miterlimit="10"/>
<path d="M-253 700.584C-176.183 733.767 -117.126 728.07 -73.0643 709.363C2.50038 677.031 20.6783 609.58 101.427 554.183C168.015 508.5 207.294 502.101 283.85 487.752C430.509 460.266 539.072 391.179 654.054 321.284C782.935 242.907 830.876 185.235 941.075 170.354C1017.61 160.066 1069.4 173.607 1097.94 183.236C1122.98 191.739 1130.06 200.03 1209.71 277.429C1291.88 357.273 1302.36 364.437 1318.12 373.896C1352.77 394.686 1405.8 417.708 1486.85 409.354" stroke="url(#paint31_linear_446_5275)" stroke-width="0.946789" stroke-miterlimit="10"/>
<path d="M-253 723.4C-174.722 757.859 -119.057 750.525 -80.7878 734.029C-5.98851 701.845 9.00613 632.481 93.164 576.722C152.899 537.14 191.655 541.435 268.855 525.704C423.759 494.136 538.724 421.541 660.247 345.014C796.242 259.26 848.445 197.082 964.662 177.078C1043.9 163.452 1087.07 180.735 1110.78 194.084C1131.01 205.478 1138.61 214.896 1220.37 298.247C1303.43 383.001 1311.35 389.442 1321.26 396.032C1354.78 418.331 1407.47 440.035 1488.26 430.044" stroke="url(#paint32_linear_446_5275)" stroke-width="0.946789" stroke-miterlimit="10"/>
<defs>
<linearGradient id="paint0_linear_446_5275" x1="624.59" y1="57.5859" x2="624.59" y2="350.919" gradientUnits="userSpaceOnUse">
<stop stop-color="#720886"/>
<stop offset="1" stop-color="#0E46F9" stop-opacity="0"/>
<stop offset="1" stop-color="#D702FF"/>
</linearGradient>
<linearGradient id="paint1_linear_446_5275" x1="623.459" y1="68.7031" x2="623.459" y2="342.933" gradientUnits="userSpaceOnUse">
<stop stop-color="#720886"/>
<stop offset="1" stop-color="#0E46F9" stop-opacity="0"/>
<stop offset="1" stop-color="#D702FF"/>
</linearGradient>
<linearGradient id="paint2_linear_446_5275" x1="622.311" y1="78.0859" x2="622.311" y2="336.742" gradientUnits="userSpaceOnUse">
<stop stop-color="#720886"/>
<stop offset="1" stop-color="#0E46F9" stop-opacity="0"/>
<stop offset="1" stop-color="#D702FF"/>
</linearGradient>
<linearGradient id="paint3_linear_446_5275" x1="621.153" y1="85.3008" x2="621.153" y2="332.778" gradientUnits="userSpaceOnUse">
<stop stop-color="#720886"/>
<stop offset="1" stop-color="#0E46F9" stop-opacity="0"/>
<stop offset="1" stop-color="#D702FF"/>
</linearGradient>
<linearGradient id="paint4_linear_446_5275" x1="620.012" y1="91.1719" x2="620.012" y2="329.909" gradientUnits="userSpaceOnUse">
<stop stop-color="#720886"/>
<stop offset="1" stop-color="#0E46F9" stop-opacity="0"/>
<stop offset="1" stop-color="#D702FF"/>
</linearGradient>
<linearGradient id="paint5_linear_446_5275" x1="618.886" y1="88.6914" x2="618.886" y2="335.572" gradientUnits="userSpaceOnUse">
<stop stop-color="#720886"/>
<stop offset="1" stop-color="#0E46F9" stop-opacity="0"/>
<stop offset="1" stop-color="#D702FF"/>
</linearGradient>
<linearGradient id="paint6_linear_446_5275" x1="617.725" y1="81.9219" x2="617.725" y2="345.608" gradientUnits="userSpaceOnUse">
<stop stop-color="#720886"/>
<stop offset="1" stop-color="#0E46F9" stop-opacity="0"/>
<stop offset="1" stop-color="#D702FF"/>
</linearGradient>
<linearGradient id="paint7_linear_446_5275" x1="616.557" y1="74.8242" x2="616.557" y2="355.791" gradientUnits="userSpaceOnUse">
<stop stop-color="#720886"/>
<stop offset="1" stop-color="#0E46F9" stop-opacity="0"/>
<stop offset="1" stop-color="#D702FF"/>
</linearGradient>
<linearGradient id="paint8_linear_446_5275" x1="615.452" y1="67.5938" x2="615.452" y2="366.107" gradientUnits="userSpaceOnUse">
<stop stop-color="#720886"/>
<stop offset="1" stop-color="#0E46F9" stop-opacity="0"/>
<stop offset="1" stop-color="#D702FF"/>
</linearGradient>
<linearGradient id="paint9_linear_446_5275" x1="614.372" y1="60.1523" x2="614.372" y2="376.761" gradientUnits="userSpaceOnUse">
<stop stop-color="#720886"/>
<stop offset="1" stop-color="#0E46F9" stop-opacity="0"/>
<stop offset="1" stop-color="#D702FF"/>
</linearGradient>
<linearGradient id="paint10_linear_446_5275" x1="613.154" y1="52.3867" x2="613.154" y2="387.638" gradientUnits="userSpaceOnUse">
<stop stop-color="#720886"/>
<stop offset="1" stop-color="#0E46F9" stop-opacity="0"/>
<stop offset="1" stop-color="#D702FF"/>
</linearGradient>
<linearGradient id="paint11_linear_446_5275" x1="611.961" y1="44.3164" x2="611.961" y2="398.865" gradientUnits="userSpaceOnUse">
<stop stop-color="#720886"/>
<stop offset="1" stop-color="#0E46F9" stop-opacity="0"/>
<stop offset="1" stop-color="#D702FF"/>
</linearGradient>
<linearGradient id="paint12_linear_446_5275" x1="610.891" y1="36.0703" x2="610.891" y2="410.305" gradientUnits="userSpaceOnUse">
<stop stop-color="#720886"/>
<stop offset="1" stop-color="#0E46F9" stop-opacity="0"/>
<stop offset="1" stop-color="#D702FF"/>
</linearGradient>
<linearGradient id="paint13_linear_446_5275" x1="609.735" y1="27.5039" x2="609.735" y2="421.976" gradientUnits="userSpaceOnUse">
<stop stop-color="#720886"/>
<stop offset="1" stop-color="#0E46F9" stop-opacity="0"/>
<stop offset="1" stop-color="#D702FF"/>
</linearGradient>
<linearGradient id="paint14_linear_446_5275" x1="608.551" y1="18.7891" x2="608.551" y2="433.815" gradientUnits="userSpaceOnUse">
<stop stop-color="#720886"/>
<stop offset="1" stop-color="#0E46F9" stop-opacity="0"/>
<stop offset="1" stop-color="#D702FF"/>
</linearGradient>
<linearGradient id="paint15_linear_446_5275" x1="607.427" y1="9.95703" x2="607.427" y2="445.82" gradientUnits="userSpaceOnUse">
<stop stop-color="#720886"/>
<stop offset="1" stop-color="#0E46F9" stop-opacity="0"/>
<stop offset="1" stop-color="#D702FF"/>
</linearGradient>
<linearGradient id="paint16_linear_446_5275" x1="606.322" y1="1" x2="606.322" y2="457.935" gradientUnits="userSpaceOnUse">
<stop stop-color="#720886"/>
<stop offset="1" stop-color="#0E46F9" stop-opacity="0"/>
<stop offset="1" stop-color="#D702FF"/>
</linearGradient>
<linearGradient id="paint17_linear_446_5275" x1="607.044" y1="23.1406" x2="607.044" y2="464.597" gradientUnits="userSpaceOnUse">
<stop stop-color="#720886"/>
<stop offset="1" stop-color="#0E46F9" stop-opacity="0"/>
<stop offset="1" stop-color="#D702FF"/>
</linearGradient>
<linearGradient id="paint18_linear_446_5275" x1="607.731" y1="45.0391" x2="607.731" y2="471.519" gradientUnits="userSpaceOnUse">
<stop stop-color="#720886"/>
<stop offset="1" stop-color="#0E46F9" stop-opacity="0"/>
<stop offset="1" stop-color="#D702FF"/>
</linearGradient>
<linearGradient id="paint19_linear_446_5275" x1="608.444" y1="62.0234" x2="608.444" y2="483.349" gradientUnits="userSpaceOnUse">
<stop stop-color="#720886"/>
<stop offset="1" stop-color="#0E46F9" stop-opacity="0"/>
<stop offset="1" stop-color="#D702FF"/>
</linearGradient>
<linearGradient id="paint20_linear_446_5275" x1="609.148" y1="73.0078" x2="609.148" y2="501.059" gradientUnits="userSpaceOnUse">
<stop stop-color="#720886"/>
<stop offset="1" stop-color="#0E46F9" stop-opacity="0"/>
<stop offset="1" stop-color="#D702FF"/>
</linearGradient>
<linearGradient id="paint21_linear_446_5275" x1="609.818" y1="83.7578" x2="609.818" y2="519.238" gradientUnits="userSpaceOnUse">
<stop stop-color="#720886"/>
<stop offset="1" stop-color="#0E46F9" stop-opacity="0"/>
<stop offset="1" stop-color="#D702FF"/>
</linearGradient>
<linearGradient id="paint22_linear_446_5275" x1="610.523" y1="94.0937" x2="610.523" y2="537.714" gradientUnits="userSpaceOnUse">
<stop stop-color="#720886"/>
<stop offset="1" stop-color="#0E46F9" stop-opacity="0"/>
<stop offset="1" stop-color="#D702FF"/>
</linearGradient>
<linearGradient id="paint23_linear_446_5275" x1="611.271" y1="104.125" x2="611.271" y2="556.53" gradientUnits="userSpaceOnUse">
<stop stop-color="#720886"/>
<stop offset="1" stop-color="#0E46F9" stop-opacity="0"/>
<stop offset="1" stop-color="#D702FF"/>
</linearGradient>
<linearGradient id="paint24_linear_446_5275" x1="611.975" y1="113.895" x2="611.975" y2="575.549" gradientUnits="userSpaceOnUse">
<stop stop-color="#720886"/>
<stop offset="1" stop-color="#0E46F9" stop-opacity="0"/>
<stop offset="1" stop-color="#D702FF"/>
</linearGradient>
<linearGradient id="paint25_linear_446_5275" x1="612.68" y1="123.43" x2="612.68" y2="594.825" gradientUnits="userSpaceOnUse">
<stop stop-color="#720886"/>
<stop offset="1" stop-color="#0E46F9" stop-opacity="0"/>
<stop offset="1" stop-color="#D702FF"/>
</linearGradient>
<linearGradient id="paint26_linear_446_5275" x1="613.384" y1="132.762" x2="613.384" y2="614.306" gradientUnits="userSpaceOnUse">
<stop stop-color="#720886"/>
<stop offset="1" stop-color="#0E46F9" stop-opacity="0"/>
<stop offset="1" stop-color="#D702FF"/>
</linearGradient>
<linearGradient id="paint27_linear_446_5275" x1="614.097" y1="141.535" x2="614.097" y2="634.444" gradientUnits="userSpaceOnUse">
<stop stop-color="#720886"/>
<stop offset="1" stop-color="#0E46F9" stop-opacity="0"/>
<stop offset="1" stop-color="#D702FF"/>
</linearGradient>
<linearGradient id="paint28_linear_446_5275" x1="614.802" y1="148.879" x2="614.802" y2="655.805" gradientUnits="userSpaceOnUse">
<stop stop-color="#720886"/>
<stop offset="1" stop-color="#0E46F9" stop-opacity="0"/>
<stop offset="1" stop-color="#D702FF"/>
</linearGradient>
<linearGradient id="paint29_linear_446_5275" x1="615.506" y1="155.961" x2="615.506" y2="677.537" gradientUnits="userSpaceOnUse">
<stop stop-color="#720886"/>
<stop offset="1" stop-color="#0E46F9" stop-opacity="0"/>
<stop offset="1" stop-color="#D702FF"/>
</linearGradient>
<linearGradient id="paint30_linear_446_5275" x1="616.176" y1="161.238" x2="616.176" y2="701.078" gradientUnits="userSpaceOnUse">
<stop stop-color="#720886"/>
<stop offset="1" stop-color="#0E46F9" stop-opacity="0"/>
<stop offset="1" stop-color="#D702FF"/>
</linearGradient>
<linearGradient id="paint31_linear_446_5275" x1="616.924" y1="166.672" x2="616.924" y2="724.45" gradientUnits="userSpaceOnUse">
<stop stop-color="#720886"/>
<stop offset="1" stop-color="#0E46F9" stop-opacity="0"/>
<stop offset="1" stop-color="#D702FF"/>
</linearGradient>
<linearGradient id="paint32_linear_446_5275" x1="617.629" y1="172.105" x2="617.629" y2="747.843" gradientUnits="userSpaceOnUse">
<stop stop-color="#720886"/>
<stop offset="1" stop-color="#0E46F9" stop-opacity="0"/>
<stop offset="1" stop-color="#D702FF"/>
</linearGradient>
</defs>
</svg>
