<svg width="20" height="20" viewBox="0 0 20 20" fill="none" xmlns="http://www.w3.org/2000/svg">
<path d="M19.0507 18.047C19.3289 18.3252 19.3289 18.7763 19.0507 19.0546C18.7724 19.3328 18.3213 19.3328 18.0431 19.0546L14.6231 15.6346C14.3448 15.3563 14.3448 14.9052 14.6231 14.627C14.9013 14.3487 15.3524 14.3487 15.6307 14.627L19.0507 18.047ZM8.28687 15.8433C4.11574 15.8433 0.734375 12.4619 0.734375 8.29078C0.734375 4.11965 4.11574 0.738281 8.28687 0.738281C12.458 0.738281 15.8394 4.11965 15.8394 8.29078C15.8394 12.4619 12.458 15.8433 8.28687 15.8433ZM8.28687 14.4183C11.671 14.4183 14.4144 11.6749 14.4144 8.29078C14.4144 4.90666 11.671 2.16328 8.28687 2.16328C4.90275 2.16328 2.15938 4.90666 2.15938 8.29078C2.15938 11.6749 4.90275 14.4183 8.28687 14.4183ZM4.77187 7.72078C4.77187 7.98312 4.55921 8.19578 4.29688 8.19578C4.03454 8.19578 3.82188 7.98312 3.82188 7.72078C3.82188 5.56963 5.56573 3.82578 7.71687 3.82578C7.97921 3.82578 8.19187 4.03845 8.19187 4.30078C8.19187 4.56312 7.97921 4.77578 7.71687 4.77578C6.0904 4.77578 4.77187 6.0943 4.77187 7.72078Z" fill="white"/>
</svg>
